<svg width="120" height="121" viewBox="0 0 120 121" fill="none" xmlns="http://www.w3.org/2000/svg">
<g filter="url(#filter0_dd)">
<path d="M33.1261 25.7297C33.0558 25.7856 32.9828 25.8381 32.9098 25.8907C32.8269 25.9504 32.7439 26.0101 32.665 26.0747C30.6223 27.7511 28.7489 29.6252 27.0728 31.6678C27.0131 31.7407 26.9581 31.8171 26.903 31.8936C26.8544 31.9611 26.8058 32.0286 26.7541 32.0936M33.1261 25.7297C33.803 25.1901 34.4918 24.6655 35.2004 24.1667H34.3435M33.1261 25.7297L32.8149 25.3383M33.1261 25.7297L32.8144 25.3387C32.8146 25.3386 32.8148 25.3384 32.8149 25.3383M34.3435 24.1667C34.5743 23.9976 34.8074 23.8308 35.0428 23.6667H33C28.4037 23.6667 24.6667 27.4053 24.6667 32V34.0428C24.8308 33.8071 24.9976 33.5738 25.1667 33.3426M34.3435 24.1667H33C28.68 24.1667 25.1667 27.6814 25.1667 32V33.3426M34.3435 24.1667C33.8242 24.5471 33.3157 24.9392 32.8149 25.3383M25.1667 33.3426V34.2003C25.6729 33.4803 26.2054 32.7805 26.7541 32.0936M25.1667 33.3426C25.5547 32.8121 25.955 32.2928 26.3632 31.7818M26.7541 32.0936L26.3634 31.7815C26.3633 31.7816 26.3632 31.7817 26.3632 31.7818M26.7541 32.0936L26.3629 31.7822C26.363 31.782 26.3631 31.7819 26.3632 31.7818M26.3632 31.7818C26.4071 31.7266 26.449 31.6684 26.4995 31.5983L26.507 31.5879C26.5584 31.5166 26.6187 31.4331 26.686 31.351L26.6863 31.3506C28.3831 29.2827 30.2798 27.3854 32.3478 25.6882L32.3484 25.6877C32.436 25.616 32.5254 25.5514 32.6027 25.4957L32.6147 25.4871C32.6904 25.4326 32.7543 25.3865 32.8149 25.3383M33.5 89.8333V89.8334H34.3435M33.5 89.8333L33.1261 88.2705M33.5 89.8333H33C28.6798 89.8333 25.1667 86.3186 25.1667 82V80.6575M33.5 89.8333L25.1667 80.6575M34.3435 89.8334C33.824 89.453 33.3153 89.0607 32.8144 88.6615M34.3435 89.8334C34.5743 90.0026 34.8074 90.1694 35.0428 90.3334H35.8523L35.8767 90.297C35.6492 90.1453 35.4238 89.9907 35.2004 89.8334M32.8144 88.6615L33.1261 88.2705M32.8144 88.6615C32.8146 88.6616 32.8148 88.6617 32.8149 88.6618L33.1261 88.2705M32.8144 88.6615C32.754 88.6134 32.6903 88.5676 32.6148 88.5132L32.6026 88.5045C32.5254 88.4488 32.4359 88.3841 32.3482 88.3123L32.3478 88.312C30.2798 86.6146 28.3833 84.7175 26.6863 82.6495L26.6859 82.6491C26.6188 82.5671 26.5584 82.4836 26.5071 82.4124L26.4997 82.4021C26.4491 82.3318 26.407 82.2735 26.3631 82.2182M33.1261 88.2705C33.0559 88.2147 32.983 88.1622 32.9101 88.1097C32.8271 88.0499 32.744 87.9901 32.665 87.9255C30.6223 86.2489 28.7491 84.375 27.0728 82.3323C27.0133 82.2596 26.9582 82.1832 26.9032 82.1068C26.8546 82.0392 26.8059 81.9717 26.7541 81.9066M26.3631 82.2182C26.3632 82.2183 26.3633 82.2185 26.3634 82.2186L26.7541 81.9066M26.3631 82.2182C26.363 82.2181 26.363 82.2181 26.3629 82.218L26.7541 81.9066M26.3631 82.2182C25.9549 81.7072 25.5547 81.1878 25.1667 80.6575M26.7541 81.9066C26.2054 81.2196 25.6729 80.5198 25.1667 79.7997V80.6575" fill="url(#paint0_linear)" stroke="url(#paint1_linear)"/>
</g>
<defs>
<filter id="filter0_dd" x="0" y="0" width="120" height="121" filterUnits="userSpaceOnUse" color-interpolation-filters="sRGB">
<feFlood flood-opacity="0" result="BackgroundImageFix"/>
<feColorMatrix in="SourceAlpha" type="matrix" values="0 0 0 0 0 0 0 0 0 0 0 0 0 0 0 0 0 0 127 0"/>
<feOffset dx="-2" dy="-1"/>
<feGaussianBlur stdDeviation="7.5"/>
<feColorMatrix type="matrix" values="0 0 0 0 1 0 0 0 0 1 0 0 0 0 1 0 0 0 0.82 0"/>
<feBlend mode="normal" in2="BackgroundImageFix" result="effect1_dropShadow"/>
<feColorMatrix in="SourceAlpha" type="matrix" values="0 0 0 0 0 0 0 0 0 0 0 0 0 0 0 0 0 0 127 0"/>
<feOffset dx="6" dy="8"/>
<feGaussianBlur stdDeviation="7.5"/>
<feColorMatrix type="matrix" values="0 0 0 0 0 0 0 0 0 0 0 0 0 0 0 0 0 0 0.04 0"/>
<feBlend mode="normal" in2="effect1_dropShadow" result="effect2_dropShadow"/>
<feBlend mode="normal" in="SourceGraphic" in2="effect2_dropShadow" result="shape"/>
</filter>
<linearGradient id="paint0_linear" x1="18" y1="17" x2="97.9999" y2="97.017" gradientUnits="userSpaceOnUse">
<stop stop-color="#FF7B17"/>
<stop offset="1" stop-color="#FF4D14"/>
</linearGradient>
<linearGradient id="paint1_linear" x1="18" y1="17" x2="97.9999" y2="97.017" gradientUnits="userSpaceOnUse">
<stop stop-color="white"/>
<stop offset="1" stop-color="white" stop-opacity="0"/>
</linearGradient>
</defs>
</svg>
