<svg width="120" height="121" viewBox="0 0 120 121" fill="none" xmlns="http://www.w3.org/2000/svg">
<g filter="url(#filter0_dd)">
<path d="M76.1166 23.6252L76.1254 23.6299C83.7639 27.763 89.7117 34.3321 93.0803 42.4651C93.1082 42.5315 93.1194 42.5921 93.1243 42.6239C94.6821 46.4275 95.6251 50.3911 95.8909 54.6252H96.1261C97.4365 54.6252 98.4997 55.6916 98.4997 57.0006C98.4997 58.3102 97.4353 59.3755 96.1248 59.3755H95.8951C95.6435 63.625 94.7296 67.5512 93.0797 71.5339L93.0796 71.5341C92.8613 72.0606 92.6298 72.5778 92.3907 73.0892C92.3263 73.2272 92.2599 73.3635 92.1953 73.4961C92.1808 73.5258 92.1665 73.5552 92.1522 73.5845C91.9842 73.9336 91.8116 74.2775 91.6343 74.6163L91.6338 74.6174C91.6107 74.6611 91.5875 74.7055 91.564 74.7503C91.4911 74.8893 91.4163 75.0321 91.3409 75.1704M76.1166 23.6252L87.7159 80.653L87.7536 80.6052C87.9235 80.3899 88.0974 80.1695 88.2671 79.9447M76.1166 23.6252L76.108 23.621M76.1166 23.6252L76.108 23.621M91.3409 75.1704C91.1504 75.5219 90.9532 75.8687 90.752 76.2112C90.6374 76.4112 90.5215 76.6089 90.4006 76.8079L90.3998 76.8093C90.1678 77.1886 89.9294 77.5667 89.6841 77.9403L89.6829 77.942C89.5501 78.1425 89.414 78.3405 89.2805 78.5348L89.2488 78.5809C89.0857 78.8187 88.9197 79.0539 88.7511 79.2889L88.749 79.2918L88.7002 79.3588C88.5597 79.5519 88.415 79.7506 88.2671 79.9447M91.3409 75.1704C91.3408 75.1706 91.3407 75.1707 91.3406 75.1709L90.9016 74.9316L91.3412 75.1698C91.3411 75.17 91.341 75.1702 91.3409 75.1704ZM88.2671 79.9447C88.2669 79.945 88.2666 79.9454 88.2664 79.9457L87.8687 79.6426L88.2678 79.9438C88.2676 79.9441 88.2673 79.9444 88.2671 79.9447ZM76.108 23.621C76.108 23.621 76.1043 23.619 76.0908 23.6111L76.0867 23.6087C76.0741 23.6012 76.0496 23.5868 76.0239 23.5732L76.108 23.621ZM72.5352 21.9161L72.5351 21.9161C72.5864 21.9381 72.6456 21.9648 72.699 21.989C72.7295 22.0027 72.7581 22.0156 72.7822 22.0263C73.2862 22.2398 73.7931 22.4606 74.2916 22.6974M72.5352 21.9161L74.624 22.8635M72.5352 21.9161L72.5289 21.9135C68.618 20.295 64.6303 19.3466 60.3758 19.0873M72.5352 21.9161L60.3758 19.0873M74.2916 22.6974L74.0771 23.149L74.2913 22.6972C74.2914 22.6973 74.2915 22.6973 74.2916 22.6974ZM74.2916 22.6974C74.3546 22.7273 74.415 22.7579 74.4694 22.7857L74.4847 22.7935C74.5345 22.819 74.5791 22.8417 74.624 22.8635M74.624 22.8635L74.4069 23.3121L74.6245 22.8637C74.6243 22.8637 74.6242 22.8636 74.624 22.8635ZM60.3758 19.0873V18.8748C60.3758 17.566 59.3115 16.5 58.001 16.5C56.6904 16.5 55.6261 17.566 55.6261 18.8748V19.0922C46.3103 19.669 37.7189 23.6121 31.2976 29.9685L31.2967 29.9695C31.1613 30.1042 31.0278 30.2389 30.8934 30.378C30.6457 30.6296 30.401 30.886 30.16 31.1479L30.1317 31.178C29.9936 31.325 29.8494 31.4785 29.7089 31.6371C29.4224 31.9571 29.1435 32.2831 28.8695 32.6096L28.8677 32.6118C28.6707 32.8494 28.4792 33.0873 28.2888 33.3291C28.0985 33.5685 27.9066 33.8115 27.7178 34.0615M60.3758 19.0873L25.5603 37.2392C25.8029 36.8383 26.0529 36.4425 26.3095 36.0536C26.4146 35.8937 26.5241 35.7346 26.63 35.5807C26.6645 35.5304 26.6987 35.4807 26.7323 35.4318L26.7329 35.4308C26.9009 35.1866 27.0712 34.9436 27.2461 34.7029C27.2652 34.6766 27.2844 34.6502 27.3036 34.6237C27.4381 34.4384 27.5762 34.2482 27.7178 34.0615M27.7178 34.0615C27.7179 34.0613 27.718 34.0612 27.7181 34.0611L28.1165 34.3632L27.7175 34.0619C27.7176 34.0618 27.7177 34.0616 27.7178 34.0615ZM25.2499 37.7639L25.2505 37.7629C25.2691 37.7313 25.2877 37.6994 25.3065 37.6674C25.3893 37.5263 25.4738 37.3821 25.5603 37.2392L25.2499 37.7639ZM25.2499 37.7639C25.0441 38.1162 24.8414 38.4726 24.6447 38.8351L24.6439 38.8366M25.2499 37.7639L24.6439 38.8366M24.6439 38.8366C24.5692 38.9755 24.4956 39.1158 24.4236 39.2532C24.4022 39.2942 24.3808 39.3349 24.3596 39.3752L24.3592 39.3761M24.6439 38.8366L24.3592 39.3761M24.3592 39.3761C24.1794 39.7199 24.0047 40.0668 23.835 40.4192L23.8344 40.4204M24.3592 39.3761L23.8344 40.4204M23.8344 40.4204C23.8035 40.4851 23.7687 40.5567 23.7332 40.6297C23.6876 40.7236 23.6408 40.82 23.5995 40.9072L23.5995 40.9072M23.8344 40.4204L23.5995 40.9072M23.5995 40.9072L23.5977 40.9109M23.5995 40.9072L23.5977 40.9109M23.5977 40.9109C23.3608 41.4218 23.1279 41.939 22.9094 42.4659L22.9094 42.4661M23.5977 40.9109L22.9094 42.4661M22.9094 42.4661C21.2595 46.4493 20.3444 50.3749 20.0944 54.6252M22.9094 42.4661L20.0944 54.6252M39.9637 90.4269L39.9597 90.4248C39.9356 90.4115 39.9133 90.3982 39.8985 90.3894L39.896 90.3879C39.8798 90.3783 39.8714 90.3733 39.8643 90.3693C39.8638 90.3691 39.8634 90.3689 39.8629 90.3686L39.9637 90.4269ZM39.9637 90.4269C40.4302 90.6776 40.9035 90.9115 41.374 91.141C41.4214 91.1641 41.4684 91.1885 41.5227 91.2165C41.5751 91.2435 41.6339 91.2738 41.6953 91.3032L41.6966 91.3038M39.9637 90.4269L41.6966 91.3038M41.6966 91.3038C42.2065 91.5463 42.7244 91.7728 43.2436 91.9907L43.2486 91.9928M41.6966 91.3038L43.2486 91.9928M43.2486 91.9928C43.2717 92.0022 43.2961 92.0135 43.3336 92.0309L43.3374 92.0327C43.3707 92.0482 43.4158 92.0692 43.4637 92.0887M43.2486 91.9928L83.5273 85.1413M83.5273 85.1413L83.5263 85.1423C77.2514 90.8456 69.0647 94.3611 60.3752 94.9073V95.1252C60.3752 96.4341 59.3101 97.5 58.0003 97.5C56.6906 97.5 55.6255 96.4349 55.6255 95.1252V94.9153C51.3708 94.656 47.3759 93.7079 43.4637 92.0887M83.5273 85.1413C83.9237 84.779 84.3097 84.408 84.6885 84.035L84.6888 84.0348M83.5273 85.1413L84.6888 84.0348M43.4637 92.0887C43.4629 92.0884 43.4621 92.0881 43.4614 92.0878L43.6526 91.6258M43.4637 92.0887C43.4638 92.0888 43.4639 92.0889 43.4641 92.0889L43.6526 91.6258M43.6526 91.6258C47.6597 93.2845 51.7507 94.229 56.1255 94.4419M43.6526 91.6258C43.6161 91.611 43.5805 91.5944 43.5449 91.5777L56.1255 94.4419M56.1255 94.4419V95.1252C56.1255 96.1587 56.9668 97 58.0003 97C59.0339 97 59.8752 96.1581 59.8752 95.1252V94.4348L56.1255 94.4419ZM84.6888 84.0348C84.8289 83.8966 84.965 83.7579 85.0991 83.6199C85.3454 83.3703 85.5881 83.1158 85.8272 82.8552C85.8275 82.8548 85.8279 82.8544 85.8282 82.8541L85.8424 82.8388C85.9862 82.6845 86.1363 82.5234 86.2814 82.3617L86.2817 82.3615M84.6888 84.0348L86.2817 82.3615M86.2817 82.3615C86.5601 82.0509 86.8317 81.7341 87.0975 81.4162M86.2817 82.3615L87.0975 81.4162M20.0944 54.6252H19.8758C18.5662 54.6252 17.501 55.6896 17.501 57C17.501 58.3104 18.5662 59.3748 19.8758 59.3748H20.0994C20.3646 63.6078 21.3077 67.5721 22.8652 71.3752C22.8704 71.4095 22.8816 71.4679 22.9087 71.5333L20.0944 54.6252ZM87.0975 81.4162C87.3076 81.1654 87.5132 80.9107 87.7155 80.6535L87.0975 81.4162ZM77.1836 64.9479L77.1835 64.948C73.9558 72.7418 66.4213 77.7761 57.9855 77.7761C55.2603 77.7761 52.5898 77.2423 50.0466 76.1903C44.9201 74.0663 40.929 70.0739 38.8048 64.9473C36.6814 59.8215 36.6814 54.1779 38.8048 49.0527L38.8048 49.0526C42.0333 41.2588 49.5683 36.2245 58.0048 36.2245C60.7301 36.2245 63.4001 36.7584 65.9427 37.8104C71.0704 39.9345 75.0607 43.9268 77.1835 49.0532L77.1836 49.0534C79.3083 54.1792 79.3083 59.8227 77.1836 64.9479ZM58.01 23.7639C61.9969 23.7639 65.9106 24.4855 69.6614 25.8978L66.7093 33.0214C63.9059 31.999 60.984 31.4755 58.0055 31.4755C54.9649 31.4755 52.0193 32.0092 49.2732 33.003L46.3195 25.8723C49.9842 24.5013 53.9305 23.7639 58.01 23.7639ZM34.0153 48.2853C31.9515 53.9442 31.9515 60.0552 34.0153 65.7141L26.9069 68.6597C24.1712 61.3727 23.9694 53.1219 26.8928 45.3345L34.0153 48.2853ZM57.9803 90.2387C53.993 90.2387 50.0804 89.5148 46.3295 88.1028L49.2805 80.9792C52.0838 82.0017 55.0051 82.5252 57.9848 82.5252C61.0249 82.5252 63.9704 81.9914 66.7165 80.9976L69.6702 88.1284C66.0055 89.5002 62.0598 90.2387 57.9803 90.2387ZM81.9737 48.2859L89.0834 45.3403C91.8192 52.6304 92.0209 60.88 89.097 68.6656L81.9738 65.7147C84.0369 60.0558 84.0369 53.9448 81.9737 48.2859Z" fill="url(#paint0_linear)" stroke="url(#paint1_linear)"/>
</g>
<defs>
<filter id="filter0_dd" x="0.000976562" y="0" width="119.999" height="121" filterUnits="userSpaceOnUse" color-interpolation-filters="sRGB">
<feFlood flood-opacity="0" result="BackgroundImageFix"/>
<feColorMatrix in="SourceAlpha" type="matrix" values="0 0 0 0 0 0 0 0 0 0 0 0 0 0 0 0 0 0 127 0"/>
<feOffset dx="-2" dy="-1"/>
<feGaussianBlur stdDeviation="7.5"/>
<feColorMatrix type="matrix" values="0 0 0 0 1 0 0 0 0 1 0 0 0 0 1 0 0 0 0.82 0"/>
<feBlend mode="normal" in2="BackgroundImageFix" result="effect1_dropShadow"/>
<feColorMatrix in="SourceAlpha" type="matrix" values="0 0 0 0 0 0 0 0 0 0 0 0 0 0 0 0 0 0 127 0"/>
<feOffset dx="6" dy="8"/>
<feGaussianBlur stdDeviation="7.5"/>
<feColorMatrix type="matrix" values="0 0 0 0 0 0 0 0 0 0 0 0 0 0 0 0 0 0 0.04 0"/>
<feBlend mode="normal" in2="effect1_dropShadow" result="effect2_dropShadow"/>
<feBlend mode="normal" in="SourceGraphic" in2="effect2_dropShadow" result="shape"/>
</filter>
<linearGradient id="paint0_linear" x1="18.001" y1="17" x2="98.0009" y2="97.0157" gradientUnits="userSpaceOnUse">
<stop stop-color="#FF7B17"/>
<stop offset="1" stop-color="#FF4D14"/>
</linearGradient>
<linearGradient id="paint1_linear" x1="18.001" y1="17" x2="98.0009" y2="97.0157" gradientUnits="userSpaceOnUse">
<stop stop-color="white"/>
<stop offset="1" stop-color="white" stop-opacity="0"/>
</linearGradient>
</defs>
</svg>
